<svg xmlns="http://www.w3.org/2000/svg" width="168" height="40" viewBox="0 0 168 40">
  <metadata><?xpacket begin="﻿" id="W5M0MpCehiHzreSzNTczkc9d"?>
<x:xmpmeta xmlns:x="adobe:ns:meta/" x:xmptk="Adobe XMP Core 5.6-c138 79.159824, 2016/09/14-01:09:01        ">
   <rdf:RDF xmlns:rdf="http://www.w3.org/1999/02/22-rdf-syntax-ns#">
      <rdf:Description rdf:about=""/>
   </rdf:RDF>
</x:xmpmeta>
                                                                                                    
                                                                                                    
                                                                                                    
                                                                                                    
                                                                                                    
                                                                                                    
                                                                                                    
                                                                                                    
                                                                                                    
                                                                                                    
                                                                                                    
                                                                                                    
                                                                                                    
                                                                                                    
                                                                                                    
                                                                                                    
                                                                                                    
                                                                                                    
                                                                                                    
                                                                                                    
                           
<?xpacket end="w"?></metadata>
<defs>
    <style>
      .cls-1 {
        fill: #fff;
        fill-rule: evenodd;
      }
    </style>
  </defs>
  <path id="roccat_logo_header" class="cls-1" d="M721.808,109.119c0.083-.526.147-1.059,0.187-1.6-6.752-3.437-16.173-3.146-16.173-3.146a40.548,40.548,0,0,1,16.146-.2A20.13,20.13,0,0,0,697.1,86.583c3.151,0.043,12.449,1,16.714,10.42a38.414,38.414,0,0,0-7.364-2.248,5.776,5.776,0,0,1-1.578,3.388c1.508-2.725.709-6-.012-5.787a33.139,33.139,0,0,1-4.724,1.178,18.491,18.491,0,0,0-7.136,3.1l0.519-1.357c-0.986.1-3.332,2.757-3.332,2.757l0.3-1.531c-1.515,1.7-2.517,5.061-2.7,5.422s-2.966,2.772-2.791,3.648c0.143,0.7,2.216.26,2.216,0.26a1.863,1.863,0,0,1-.052.356c-0.181.387-1,.071-1.484,0.313s-0.492.426-.073,2.13a1.529,1.529,0,0,0,1.73,1.422c0.334,1.437,2.212,2.393,2.212,2.393-1.267-2.478.515-3.427,0.515-3.427a3.588,3.588,0,0,0,2.026,1.885c-1.09-2.29-1.465-3.3-.545-3.977,1.937-1.42,2.474-1.822,5.138.591s-2.162,3.956-2.162,3.956a8.572,8.572,0,0,1-2.034-1.81,9.294,9.294,0,0,0,.551,2.3,5.525,5.525,0,0,1-3.062-1.466,12.947,12.947,0,0,0,1.024,3.664c1.277,3.417,4.48.361,4.48,0.361,3.511-2.41,6.224-2.142,6.224-2.142,2.29,0.631,4.669,8.451,4.669,8.451a18.051,18.051,0,0,1-18.173-.249,20.151,20.151,0,0,0,31.578-5.32,40.391,40.391,0,0,0-9.235-3.868c1.877-.187,7.188.862,10.17,1.816,0.148-.383.287-0.773,0.411-1.167a38.557,38.557,0,0,0-13.07-4.275A62.112,62.112,0,0,1,721.808,109.119Zm-30.9-7.715-1.809.426s0.182-1.532,2.9-1.988Zm76.835-.463a0.165,0.165,0,0,1,.037.142c-0.052.3-.1,0.589-0.152,0.884a0.156,0.156,0,0,1-.179.149H750.132a0.156,0.156,0,0,1-.178-0.211q0.363-2.067.725-4.135a0.154,0.154,0,0,1,.178-0.148H765a0.162,0.162,0,0,1,.141.068Q766.444,99.314,767.745,100.941Zm21.723-3.32H775.8a0.171,0.171,0,0,0-.111.038l-4.257,3.3a0.163,0.163,0,0,0-.066.109c-0.051.277-.1,0.555-0.155,0.832a0.156,0.156,0,0,0,.178.213h17.345a0.155,0.155,0,0,0,.179-0.149q0.366-2.065.731-4.135A0.155,0.155,0,0,0,789.468,97.621Zm19.064,12.267H795.967a0.156,0.156,0,0,1-.178-0.211q0.4-2.29.8-4.581a0.155,0.155,0,0,0-.172-0.211l-4.316-.16a0.156,0.156,0,0,0-.185.151l-1.174,6.642a0.162,0.162,0,0,0,.035.139q1.014,1.326,2.025,2.654a0.162,0.162,0,0,0,.144.071H807.8a0.155,0.155,0,0,0,.179-0.148q0.366-2.068.733-4.135A0.156,0.156,0,0,0,808.532,109.888Zm-41.43-6.106q-2.087-.079-4.173-0.159a0.156,0.156,0,0,0-.185.149q-0.53,2.983-1.06,5.966a0.156,0.156,0,0,1-.178.15h-8.037a0.155,0.155,0,0,1-.177-0.211q0.546-3.086,1.1-6.167a0.155,0.155,0,0,0-.172-0.212q-2.158-.083-4.319-0.162a0.154,0.154,0,0,0-.185.148q-0.741,4.185-1.48,8.368a0.167,0.167,0,0,0,.033.142q0.969,1.258,1.934,2.517a0.164,0.164,0,0,0,.144.071h14.928a0.153,0.153,0,0,0,.177-0.148q0.913-5.121,1.824-10.24A0.155,0.155,0,0,0,767.1,103.782Zm-23.135-6.09a0.165,0.165,0,0,0-.144-0.07H729.605a0.153,0.153,0,0,0-.178.148q-1.458,8.2-2.914,16.4a0.155,0.155,0,0,0,.178.211H730.9a0.154,0.154,0,0,0,.178-0.148q0.512-2.889,1.024-5.777a0.152,0.152,0,0,1,.177-0.149h2.544a0.159,0.159,0,0,1,.155.087q1.78,2.949,3.559,5.9a0.157,0.157,0,0,0,.154.087h4.878c0.185,0,.251-0.114.155-0.273l-3.357-5.528a0.162,0.162,0,0,1,.154-0.273h4.57a0.155,0.155,0,0,0,.178-0.149q0.439-2.48.881-4.959a0.154,0.154,0,0,0-.171-0.21l-4.1-.152a0.154,0.154,0,0,0-.184.147c-0.1.574-.2,1.15-0.308,1.724a0.154,0.154,0,0,1-.178.149H732.95a0.155,0.155,0,0,1-.178-0.21q0.207-1.192.412-2.383a0.154,0.154,0,0,1,.178-0.149H746.19a0.155,0.155,0,0,0,.178-0.147l0.16-.886a0.156,0.156,0,0,0-.036-0.142Zm43.328,12.2H774.731a0.156,0.156,0,0,1-.179-0.211q0.477-2.683.953-5.368a0.156,0.156,0,0,0-.172-0.212l-4.313-.164a0.156,0.156,0,0,0-.187.147q-0.661,3.718-1.325,7.436a0.167,0.167,0,0,0,.034.141l2.026,2.654a0.16,0.16,0,0,0,.143.071h14.851a0.155,0.155,0,0,0,.179-0.148q0.366-2.068.731-4.135A0.155,0.155,0,0,0,787.3,109.888Zm61.121,1.7h-1.005l-0.418,1.95h0.5l0.124-.571h0.441c0.152,0,.207.041,0.207,0.142a0.413,0.413,0,0,1-.015.114l-0.068.315h0.5l0.087-.4a0.808,0.808,0,0,0,.018-0.123,0.245,0.245,0,0,0-.243-0.26,0.441,0.441,0,0,0,.344-0.238,1.527,1.527,0,0,0,.134-0.566C849.017,111.693,848.838,111.588,848.416,111.588Zm0,0.836a0.234,0.234,0,0,1-.262.132H847.7l0.119-.552h0.459c0.165,0,.211.027,0.211,0.127A1.151,1.151,0,0,1,848.42,112.424Zm-3.714-5.7q-2.087-.077-4.172-0.156a0.155,0.155,0,0,0-.185.15q-0.659,3.727-1.319,7.451a0.156,0.156,0,0,0,.179.211h4.208a0.154,0.154,0,0,0,.179-0.148q0.642-3.648,1.282-7.3A0.156,0.156,0,0,0,844.706,106.726Zm8.108-9.1H835.562a0.153,0.153,0,0,0-.176.148q-0.368,2.069-.733,4.135a0.156,0.156,0,0,0,.178.211h17.251a0.155,0.155,0,0,0,.178-0.149q0.365-2.065.733-4.135A0.156,0.156,0,0,0,852.814,97.621Zm-42.108,0H797.039a0.169,0.169,0,0,0-.111.038q-2.133,1.652-4.267,3.3a0.16,0.16,0,0,0-.067.11c-0.049.278-.1,0.556-0.146,0.833a0.156,0.156,0,0,0,.178.211h17.348a0.154,0.154,0,0,0,.177-0.149q0.366-2.065.733-4.135A0.155,0.155,0,0,0,810.706,97.621Zm21.223,0H818.184a0.168,0.168,0,0,0-.11.038l-4.259,3.3a0.163,0.163,0,0,0-.066.11c-0.051.278-.1,0.556-0.15,0.833a0.156,0.156,0,0,0,.179.211H831.2a0.155,0.155,0,0,0,.178-0.149q0.366-2.065.733-4.135A0.156,0.156,0,0,0,831.929,97.621Zm-1.512,8.552-17.3-.651a0.157,0.157,0,0,0-.185.15q-0.753,4.249-1.508,8.5a0.156,0.156,0,0,0,.178.211h4.348a0.155,0.155,0,0,0,.178-0.148q0.41-2.337.819-4.669a0.156,0.156,0,0,1,.179-0.15h8.017a0.156,0.156,0,0,1,.178.211q-0.4,2.273-.809,4.545a0.155,0.155,0,0,0,.177.211h4.332a0.154,0.154,0,0,0,.178-0.148q0.694-3.924,1.39-7.85A0.156,0.156,0,0,0,830.417,106.173Zm18.016,4.613a2.3,2.3,0,0,0-2.242,2.161,1.389,1.389,0,0,0,1.441,1.426,2.3,2.3,0,0,0,2.228-2.166A1.381,1.381,0,0,0,848.433,110.786Zm-0.74,3.289a1.142,1.142,0,0,1-1.175-1.184,1.879,1.879,0,0,1,1.835-1.77,1.137,1.137,0,0,1,1.179,1.16A1.91,1.91,0,0,1,847.693,114.075Z" transform="translate(-685 -86)"/>
</svg>
